<svg xmlns="http://www.w3.org/2000/svg" xmlns:xlink="http://www.w3.org/1999/xlink" width="500" zoomAndPan="magnify" viewBox="0 0 375 374.999991" height="500" preserveAspectRatio="xMidYMid meet" version="1.0"><defs><clipPath id="0c6caab8f2"><path d="M 0.429688 0 L 375 0 L 375 368.785156 L 0.429688 368.785156 Z M 0.429688 0 " clip-rule="nonzero"/></clipPath><clipPath id="d387e28358"><path d="M 22.828125 30.257812 L 352.078125 30.257812 L 352.078125 344.664062 L 22.828125 344.664062 Z M 22.828125 30.257812 " clip-rule="nonzero"/></clipPath></defs><rect x="-37.5" width="450" fill="#ffffff" y="-37.499999" height="449.999989" fill-opacity="1"/><rect x="-37.5" width="450" fill="#ffffff" y="-37.499999" height="449.999989" fill-opacity="1"/><g clip-path="url(#0c6caab8f2)"><path fill="#282726" d="M 0.429688 0 L 375 0 L 375 368.785156 L 0.429688 368.785156 Z M 0.429688 0 " fill-opacity="1" fill-rule="nonzero"/></g><g clip-path="url(#d387e28358)"><path fill="#ffffff" d="M 177.726562 180 C 184.246094 181.902344 190.734375 181.902344 197.328125 180 C 199.21875 179.445312 201.125 178.800781 203.035156 177.9375 C 204.171875 177.425781 205.5 177.9375 206.019531 179.070312 C 206.527344 180.203125 206.019531 181.546875 204.886719 182.054688 C 199.09375 184.664062 193.289062 185.957031 187.5 185.957031 C 181.710938 185.957031 175.9375 184.652344 170.238281 182.046875 C 169.105469 181.527344 168.605469 180.195312 169.121094 179.0625 C 169.640625 177.925781 170.972656 177.425781 172.113281 177.945312 C 173.992188 178.800781 175.859375 179.453125 177.726562 180 Z M 192.941406 153.644531 C 193.03125 153.492188 193.03125 153.332031 192.941406 153.179688 L 187.570312 143.871094 L 185.613281 140.484375 C 184.988281 139.402344 185.363281 138.027344 186.4375 137.402344 C 187.515625 136.777344 188.894531 137.144531 189.519531 138.234375 L 196.851562 150.917969 C 197.746094 152.484375 197.746094 154.339844 196.851562 155.90625 C 195.949219 157.457031 194.34375 158.386719 192.539062 158.386719 L 187.570312 158.386719 C 186.320312 158.386719 185.308594 157.378906 185.308594 156.136719 C 185.308594 154.886719 186.320312 153.875 187.570312 153.875 L 192.539062 153.875 C 192.761719 153.875 192.878906 153.75 192.941406 153.644531 Z M 109.28125 101.613281 C 109.558594 101.246094 109.980469 101.03125 110.433594 101.03125 L 264.511719 101.03125 C 264.957031 101.03125 265.378906 101.246094 265.652344 101.613281 C 265.796875 101.800781 266.011719 102.191406 265.867188 102.683594 C 265.214844 104.9375 263.992188 107 262.304688 108.660156 C 259.695312 111.304688 256.183594 112.761719 252.433594 112.761719 L 122.503906 112.761719 C 116.320312 112.761719 110.800781 108.617188 109.078125 102.683594 C 108.925781 102.191406 109.148438 101.800781 109.28125 101.613281 Z M 124.96875 48.617188 C 124.96875 42.640625 129.214844 37.546875 135.054688 36.511719 C 148.0625 34.1875 166.46875 33.125 182.703125 40.324219 C 178.082031 43.28125 173.730469 47.042969 169.863281 51.769531 C 169.066406 52.734375 169.210938 54.15625 170.175781 54.949219 C 171.140625 55.734375 172.5625 55.59375 173.347656 54.628906 C 177.753906 49.257812 182.835938 45.246094 188.257812 42.289062 C 188.464844 42.210938 188.660156 42.101562 188.847656 41.96875 C 206.324219 32.722656 227.167969 34.222656 239.886719 36.5 C 245.730469 37.546875 249.964844 42.640625 249.964844 48.605469 L 249.964844 96.519531 L 124.96875 96.519531 Z M 122.503906 117.273438 L 252.433594 117.273438 C 257.398438 117.273438 262.042969 115.34375 265.492188 111.859375 C 267.707031 109.671875 269.335938 106.929688 270.203125 103.945312 C 270.710938 102.203125 270.363281 100.371094 269.261719 98.90625 C 268.148438 97.414062 266.367188 96.519531 264.511719 96.519531 L 254.476562 96.519531 L 254.476562 48.605469 C 254.476562 40.449219 248.679688 33.492188 240.683594 32.0625 C 227.453125 29.695312 205.914062 28.15625 187.453125 37.601562 C 169.488281 28.414062 148.691406 29.496094 134.261719 32.0625 C 126.265625 33.492188 120.457031 40.449219 120.457031 48.617188 L 120.457031 96.519531 L 110.433594 96.519531 C 108.574219 96.519531 106.796875 97.414062 105.679688 98.90625 C 104.574219 100.371094 104.234375 102.210938 104.742188 103.945312 C 107.023438 111.796875 114.328125 117.273438 122.503906 117.273438 Z M 344.675781 335.34375 C 342.175781 338.398438 338.464844 340.152344 334.507812 340.152344 L 303.445312 340.152344 L 303.445312 309.925781 C 303.445312 308.675781 302.433594 307.675781 301.195312 307.675781 C 299.941406 307.675781 298.933594 308.675781 298.933594 309.925781 L 298.933594 340.152344 L 225.003906 340.152344 L 273.148438 278.21875 C 274.605469 276.324219 274.703125 273.808594 273.390625 271.8125 C 272.078125 269.820312 269.746094 268.910156 267.421875 269.492188 L 245.4375 275.058594 L 279.3125 247.703125 L 314.238281 257.039062 C 327.109375 260.71875 336.734375 271.164062 339.367188 284.277344 L 347.398438 324.445312 C 348.175781 328.320312 347.175781 332.289062 344.675781 335.34375 Z M 219.285156 340.152344 L 206.664062 340.152344 L 232.097656 200.207031 L 288.828125 225.804688 C 290.242188 226.5625 291.125 227.921875 291.277344 229.53125 C 291.429688 231.15625 290.777344 232.675781 289.515625 233.703125 L 277.589844 243.316406 C 277.507812 243.367188 277.429688 243.421875 277.359375 243.476562 L 242.023438 272.011719 C 240.460938 273.171875 239.773438 274.949219 240.21875 276.65625 C 240.683594 278.390625 242.183594 279.621094 244.140625 279.871094 C 244.425781 279.910156 244.703125 279.890625 244.980469 279.820312 L 268.53125 273.871094 C 269.148438 273.707031 269.46875 274.066406 269.621094 274.289062 C 269.65625 274.351562 269.691406 274.421875 269.726562 274.503906 C 269.765625 274.582031 269.789062 274.671875 269.800781 274.78125 C 269.816406 274.976562 269.773438 275.21875 269.585938 275.460938 Z M 198.050781 285.992188 L 204.75 274.261719 L 213.09375 279.570312 L 206.449219 316.109375 Z M 202.078125 340.152344 L 172.917969 340.152344 L 170.535156 327 L 181.09375 287.949219 L 193.914062 287.949219 L 204.597656 326.277344 Z M 161.914062 279.570312 L 170.363281 274.191406 L 176.957031 285.992188 L 168.65625 316.671875 Z M 155.710938 340.152344 L 105.421875 275.476562 C 105.039062 274.96875 105.226562 274.519531 105.378906 274.289062 C 105.449219 274.171875 105.574219 274.03125 105.753906 273.941406 C 105.929688 273.84375 106.171875 273.789062 106.46875 273.871094 L 130.019531 279.820312 C 130.285156 279.890625 130.570312 279.910156 130.859375 279.871094 C 132.8125 279.621094 134.316406 278.390625 134.78125 276.648438 C 135.226562 274.949219 134.539062 273.171875 133.046875 272.066406 L 97.640625 243.476562 C 97.570312 243.421875 97.496094 243.367188 97.417969 243.324219 L 85.492188 233.710938 C 84.214844 232.675781 83.570312 231.15625 83.722656 229.53125 C 83.875 227.921875 84.765625 226.5625 86.027344 225.875 L 142.902344 200.207031 L 168.335938 340.152344 Z M 76.066406 340.152344 L 76.066406 309.925781 C 76.066406 308.675781 75.054688 307.675781 73.8125 307.675781 C 72.5625 307.675781 71.554688 308.675781 71.554688 309.925781 L 71.554688 340.152344 L 40.480469 340.152344 C 36.53125 340.152344 32.832031 338.398438 30.324219 335.351562 C 27.820312 332.296875 26.820312 328.320312 27.589844 324.445312 L 35.628906 284.277344 C 38.265625 271.164062 47.886719 260.71875 60.714844 257.046875 L 95.683594 247.703125 L 129.5625 275.058594 L 107.566406 269.492188 C 105.253906 268.910156 102.910156 269.820312 101.609375 271.8125 C 101.445312 272.066406 101.304688 272.324219 101.179688 272.589844 C 100.820312 273.378906 100.660156 274.21875 100.6875 275.058594 C 100.730469 276.175781 101.125 277.28125 101.859375 278.230469 L 149.996094 340.152344 Z M 191.277344 260.359375 L 221.269531 234.53125 L 213.960938 274.773438 Z M 161.035156 274.773438 L 156.195312 248.113281 L 153.730469 234.53125 L 183.71875 260.359375 Z M 187.5 263.308594 L 200.9375 271.839844 L 194.316406 283.4375 L 180.699219 283.4375 L 174.179688 271.769531 Z M 227.695312 199.226562 L 222.554688 227.476562 L 187.5 257.664062 L 152.441406 227.476562 L 147.304688 199.226562 Z M 351.832031 323.558594 L 343.789062 283.394531 C 340.824219 268.605469 329.980469 256.851562 315.441406 252.6875 L 283.683594 244.199219 L 292.359375 237.214844 C 294.777344 235.238281 296.054688 232.210938 295.769531 229.109375 C 295.484375 226.035156 293.699219 223.3125 290.832031 221.765625 L 231.320312 194.910156 C 231.3125 194.910156 231.300781 194.910156 231.300781 194.910156 C 231.027344 194.785156 230.714844 194.714844 230.390625 194.714844 L 144.605469 194.714844 C 144.277344 194.714844 143.972656 194.785156 143.695312 194.910156 C 143.6875 194.910156 143.6875 194.910156 143.679688 194.910156 L 84.015625 221.835938 C 81.308594 223.3125 79.515625 226.035156 79.226562 229.109375 C 78.941406 232.210938 80.21875 235.238281 82.648438 237.214844 L 91.316406 244.199219 L 59.519531 252.703125 C 45.019531 256.851562 34.171875 268.605469 31.207031 283.394531 L 23.167969 323.558594 C 22.128906 328.769531 23.46875 334.109375 26.839844 338.210938 C 30.207031 342.3125 35.175781 344.664062 40.480469 344.664062 L 334.507812 344.664062 C 339.824219 344.664062 344.792969 342.3125 348.160156 338.210938 C 351.527344 334.109375 352.867188 328.769531 351.832031 323.558594 " fill-opacity="1" fill-rule="nonzero"/></g></svg>